<?xml version="1.0" encoding="UTF-8"?>
<svg  version="1.1" viewBox="0 0 60.72084 9.921875" xmlns="http://www.w3.org/2000/svg">
<g transform="translate(-92.8 -191.17)">
<path transform="scale(.26458)" d="m381.05 722.52-4.3301 2.5v35l4.3301-2.5 17.32-10v-5l-17.32 10zm69.283 0-21.652 12.5v25l21.652-12.5v-5l-17.322 10v-15l17.322-10zm25.98 0-8.6602 5-4.3301 2.5-8.6602 5v5l8.6602-5v25l4.3301-2.5v-25l8.6602-5zm17.32 0-4.3301 2.5-17.32 10v25l4.3301-2.5v-10l12.99-7.5 4.3301-2.5v-10zm-4.3301 17.5v20l4.3301-2.5v-15zm30.311-17.5-4.3301 2.5-17.32 10v25l4.3301-2.5 12.99-7.5 4.3301-2.5v-20zm25.98 0-4.3301 2.5v20l-12.99-7.5-4.3301-2.5v25l4.3301-2.5v-15l17.32 10v-5zm8.6602 0-4.3301 2.5v35l4.3301-2.5zm25.98 0-21.65 12.5v25l21.65-12.5v-5l-17.32 10v-15l17.32-10zm-212.18 2.5-17.32 10v5l21.65-12.5zm51.961 0-17.32 10v5l21.65-12.5zm69.283 5v5l-12.99 7.5v-5zm25.98 0v15l-12.99 7.5v-15zm-142.89 2.5-21.65 12.5v5l21.65-12.5zm51.961 0-21.65 12.5v5l21.65-12.5zm-51.961 10-21.65 12.5 4.3301 2.5 17.32-10zm51.961 0-21.65 12.5 4.3301 2.5 17.32-10z" fill-rule="evenodd" style="paint-order:markers stroke fill"/>
</g>
</svg>
