<?xml version="1.0" encoding="UTF-8" standalone="no"?>
<!-- Created with Inkscape (http://www.inkscape.org/) -->

<svg
   xmlns:dc="http://purl.org/dc/elements/1.1/"
   xmlns:cc="http://creativecommons.org/ns#"
   xmlns:rdf="http://www.w3.org/1999/02/22-rdf-syntax-ns#"
   xmlns:svg="http://www.w3.org/2000/svg"
   xmlns="http://www.w3.org/2000/svg"
   xmlns:sodipodi="http://sodipodi.sourceforge.net/DTD/sodipodi-0.dtd"
   xmlns:inkscape="http://www.inkscape.org/namespaces/inkscape"
   width="5.728332mm"
   height="80.697914mm"
   viewBox="0 0 5.728332 80.697914"
   version="1.1"
   id="svg4845"
   inkscape:version="0.92.1 r15371"
   sodipodi:docname="electronic-vertical.svg">
  <defs
     id="defs4839" />
  <sodipodi:namedview
     id="base"
     pagecolor="#ffffff"
     bordercolor="#666666"
     borderopacity="1.0"
     inkscape:pageopacity="0.0"
     inkscape:pageshadow="2"
     inkscape:zoom="1.979899"
     inkscape:cx="68.681023"
     inkscape:cy="159.82865"
     inkscape:document-units="mm"
     inkscape:current-layer="layer1"
     showgrid="false"
     fit-margin-top="0"
     fit-margin-left="0"
     fit-margin-right="0"
     fit-margin-bottom="0"
     inkscape:window-width="1920"
     inkscape:window-height="1027"
     inkscape:window-x="1912"
     inkscape:window-y="457"
     inkscape:window-maximized="1" />
  <metadata
     id="metadata4842">
    <rdf:RDF>
      <cc:Work
         rdf:about="">
        <dc:format>image/svg+xml</dc:format>
        <dc:type
           rdf:resource="http://purl.org/dc/dcmitype/StillImage" />
        <dc:title></dc:title>
      </cc:Work>
    </rdf:RDF>
  </metadata>
  <g
     inkscape:label="Ebene 1"
     inkscape:groupmode="layer"
     id="layer1"
     transform="translate(-71.97512,-26.841518)">
    <path
       inkscape:connector-curvature="0"
       style="opacity:1;fill:#000000;fill-opacity:1;fill-rule:evenodd;stroke:none;stroke-width:4.58300018;stroke-linecap:butt;stroke-linejoin:round;stroke-miterlimit:4;stroke-dasharray:none;stroke-dashoffset:0;stroke-opacity:1;paint-order:markers stroke fill"
       d="m 76.557785,26.841518 -4.582665,2.645833 v 1.322917 l 5.728332,-3.307292 z m 1.145667,1.984375 -5.728332,3.307291 v 1.322917 l 5.728332,-3.307292 z m 0,2.645833 -5.728332,3.307292 1.145664,0.661458 4.582668,-2.645833 z m -5.728332,4.630208 v 6.614584 1.322917 l 1.145664,-0.661459 4.582668,-2.645833 v -1.322917 l -4.582668,2.645834 v -5.291667 z m 5.728332,5.953126 -5.728332,3.307291 v 1.322917 l 5.728332,-3.307292 z m 0,2.645833 -5.728332,3.307292 v 1.322916 l 5.728332,-3.307291 z m 0,2.645833 -5.728332,3.307292 v 1.322917 l 5.728332,-3.307292 z m 0,2.645834 -5.728332,3.307291 v 6.614584 l 5.728332,-3.307292 v -1.322917 l -4.582668,2.645834 v -3.96875 l 4.582668,-2.645834 z m 0,7.9375 -2.291334,1.322916 -1.145667,0.661459 -2.291331,1.322916 v 1.322917 l 2.291331,-1.322917 v 5.291667 l 1.145667,-0.661458 v -5.291667 l 2.291334,-1.322917 z m 0,7.9375 -1.145667,0.661458 -4.582665,2.645833 v 1.322917 1.322917 1.322916 2.645834 l 1.145664,-0.661459 v -2.645833 l 3.437001,-1.984375 1.145667,-0.661458 v -2.645834 z m -1.145667,4.630208 v 2.645833 l 1.145667,-0.661458 v -1.322917 z m 0,-2.645833 v 1.322916 l -3.437001,1.984375 V 69.83631 Z m 1.145667,5.953125 -1.145667,0.661458 -4.582665,2.645833 v 1.322917 3.96875 1.322917 l 1.145664,-0.661459 3.437001,-1.984375 1.145667,-0.661458 v -5.291667 z m -1.145667,1.984375 v 3.96875 l -3.437001,1.984375 v -3.96875 z m 1.145667,5.953125 -1.145667,0.661458 v 5.291667 L 73.120784,85.71131 71.97512,85.049851 v 1.322917 5.291667 l 1.145664,-0.661459 v -3.96875 l 4.582668,2.645834 v -1.322917 z m -1.145667,8.598958 -1.145667,0.661458 -1.145667,0.661459 -2.291331,1.322916 v 1.322917 l 2.291331,-1.322917 v 3.96875 l -2.291331,1.322917 v 1.322917 l 2.291331,-1.322917 1.145667,-0.661458 2.291334,-1.322917 v -1.322917 l -2.291334,1.322917 v -3.96875 l 2.291334,-1.322917 z m 1.145667,7.276042 -5.728332,3.30729 v 6.61458 l 5.728332,-3.30729 v -1.32291 l -4.582668,2.64583 v -3.96875 l 4.582668,-2.645834 z"
       id="path4561" />
  </g>
</svg>
